# xmcd CD database file
#
# Track frame offsets:
#	150
#	17577
#	37197
#	62950
#	78347
#	91582
#	111857
#	127365
#	149282
#	164275
#
# Disc length: 2439 seconds
#
# Revision: 0
# Processed by: cddbd v1.5PL3 Copyright (c) Steve Scherf et al.
# Submitted via: CDex 1.50Beta7
#
DISCID=8609850a
DTITLE=ZEPET STORE - 716
DYEAR=1996
DGENRE=Rock
TTITLE0=FLAKE
TTITLE1=MAC THINK
TTITLE2=ORANGE
TTITLE3=PAGE NINE
TTITLE4=NANCY
TTITLE5=SOME THING SIMPLY VANISH
TTITLE6=HEAVY GAUGE
TTITLE7=ON A SUNNY DAY
TTITLE8=ANGEL WILL COME
TTITLE9=BELLE
EXTD=YEAR: 1996
EXTT0=
EXTT1=
EXTT2=
EXTT3=
EXTT4=
EXTT5=
EXTT6=
EXTT7=
EXTT8=
EXTT9=
PLAYORDER=
